<?xml version="1.0" encoding="utf-8"?>
<?xml-stylesheet type="text/xsl" href="rss1.xsl"?>
<rss version="2.0" xmlns:atom="http://www.w3.org/2005/Atom" xmlns:content="http://purl.org/rss/1.0/modules/content/" xmlns:dc="http://purl.org/dc/elements/1.1/" xmlns:media="http://search.yahoo.com/mrss/">
<channel>
 <title>Getty</title>
 <link>http://www.gettyimg.com/</link>
 <atom:link href="http://www.gettyimg.com/" rel="self" type="application/rss+xml" />

 
                <item>
                <title><![CDATA[【Apple Music】WEB-RiP - Rick Astley - Together Forever | Apple Music WEB-DL 4K]]></title>
                <link><![CDATA[https://sharemania.us/threads/rick-astley-together-forever-apple-music-web-dl-4k.220504/]]></link>
                <description><![CDATA[<article>
<blockquote class="messageText SelectQuoteContainer ugc baseHtml">
<div class="ToggleTriggerAnchor bbCodeSpoilerContainer">
<button type="button" class="button bbCodeSpoilerButton ToggleTrigger Tooltip JsOnly" data-target="> .SpoilerTarget"><span>Spoiler: <span class="SpoilerTitle">Thumbnails</span></span></button>
<div class="SpoilerTarget bbCodeSpoilerText"><img src="https://i.imgur.com/sBPGrmt.jpg" class="bbCodeImage LbImage" alt="[​IMG]" data-url="https://i.imgur.com/sBPGrmt.jpg" style=""></div>
</div>
<div class="ToggleTriggerAnchor bbCodeSpoilerContainer">
<button type="button" class="button bbCodeSpoilerButton ToggleTrigger Tooltip JsOnly" data-target="> .SpoilerTarget"><span>Spoiler: <span class="SpoilerTitle">Mediainfo</span></span></button>
<div class="SpoilerTarget bbCodeSpoilerText">
<div class="bbCodeBlock bbCodeCode">
<div class="type">Code:</div>
<pre>General
Complete name                  : Together Forever.m4v
Format                         : MPEG-4
Codec ID                       : M4V  (isom/iso4/M4V /mp42)
File size                      : 520 MiB
Duration                       : 3 min 25 s
Overall bit rate mode          : Variable
Overall bit rate               : 21.3 Mb/s
Movie name                     : Together Forever
Performer                      : Rick Astley
Genre                          : Pop
ContentType                    : Music Video
Recorded date                  : UTC 1987-01-01 08:00:00
Encoded date                   : UTC 2023-05-07 07:07:24
Tagged date                    : UTC 2023-05-07 07:07:24
Copyright                      : ℗ 1987 BMG Rights Management (UK) Limited
Cover                          : Yes
Rating                         : None
GenreID                        : 1614
AppleStoreCountry              : Brazil
AlbumTitleID                   : 669771
AppleStoreCatalogID            : 1559900037

Video
ID                             : 2
Format                         : HEVC
Format/Info                    : High Efficiency Video Coding
Format profile                 : Main 10@L5@High
Codec ID                       : hvc1
Codec ID/Info                  : High Efficiency Video Coding
Duration                       : 3 min 25 s
Bit rate                       : 21.0 Mb/s
Maximum bit rate               : 51.2 Mb/s
Width                          : 2 956 pixels
Height                         : 2 160 pixels
Display aspect ratio           : 4:3
Frame rate mode                : Constant
Frame rate                     : 25.000 FPS
Color space                    : YUV
Chroma subsampling             : 4:2:0
Bit depth                      : 10 bits
Scan type                      : Progressive
Bits/(Pixel*Frame)             : 0.131
Stream size                    : 513 MiB (99%)
Title                          : Core Media Video
Encoded date                   : UTC 2023-04-07 10:42:32
Tagged date                    : UTC 2023-05-07 07:07:57
Color range                    : Limited
Color primaries                : BT.709
Transfer characteristics       : BT.709
Matrix coefficients            : BT.709
Codec configuration box        : hvcC

Audio
ID                             : 1
Format                         : AAC LC
Format/Info                    : Advanced Audio Codec Low Complexity
Codec ID                       : mp4a-40-2
Duration                       : 3 min 25 s
Duration_LastFrame             : -12 ms
Bit rate mode                  : Variable
Bit rate                       : 265 kb/s
Maximum bit rate               : 342 kb/s
Channel(s)                     : 2 channels
Channel layout                 : L R
Sampling rate                  : 48.0 kHz
Frame rate                     : 46.875 FPS (1024 SPF)
Compression mode               : Lossy
Stream size                    : 6.44 MiB (1%)
Title                          : Core Media Audio
Encoded date                   : UTC 2023-04-07 10:36:23
Tagged date                    : UTC 2023-05-07 07:07:57

</pre>
</div></div>
</div>
<div class="ToggleTriggerAnchor bbCodeSpoilerContainer">
<button type="button" class="button bbCodeSpoilerButton ToggleTrigger Tooltip JsOnly" data-target="> .SpoilerTarget"><span>Spoiler: <span class="SpoilerTitle">Download</span></span></button>
<div class="SpoilerTarget bbCodeSpoilerText">
<div class="bbCodeBlock bbCodeVfcHH HiddenContent">
<div class="attribution type">Hidden Content:</div>
<blockquote>You must reply before you can see the hidden data contained here.</blockquote>
</div></div>
</div>
<div class="messageTextEndMarker">&nbsp;</div>
</blockquote>
</article>]]></description>
                <author><![CDATA[glomatico]]></author>
                </item>

                </channel></rss>